<svg width="22" height="22" viewBox="0 0 22 22" fill="none" xmlns="http://www.w3.org/2000/svg">
<path d="M20.7265 6.69388L11.1289 0.295441C10.8013 0.0938497 10.4517 0.092004 10.1211 0.295441L0.523426 6.69388C0.277332 6.8579 0.125 7.15092 0.125 7.44385V13.8422C0.125 14.1352 0.277332 14.4282 0.523467 14.5923L10.1211 20.9916C10.4487 21.1932 10.7983 21.195 11.1289 20.9916L20.7266 14.5923C20.9727 14.4282 21.125 14.1352 21.125 13.8422V7.44385C21.125 7.15092 20.9727 6.8579 20.7265 6.69388ZM11.5273 2.73288L18.5938 7.44385L15.4414 9.55324L11.5273 6.93993V2.73288ZM9.72266 2.73288V6.93993L5.80858 9.55324L2.65624 7.44385L9.72266 2.73288ZM1.92969 9.13136L4.19141 10.6431L1.92969 12.1548V9.13136ZM9.72266 18.5533L2.65624 13.8423L5.80858 11.7329L9.72266 14.3462V18.5533ZM10.625 12.7759L7.43747 10.6431L10.625 8.51026L13.8125 10.6431L10.625 12.7759ZM11.5273 18.5533V14.3462L15.4414 11.7329L18.5938 13.8423L11.5273 18.5533ZM19.3203 12.1548L17.0586 10.6431L19.3203 9.13136V12.1548Z" fill="white"/>
</svg>
