<svg width="22" height="22" viewBox="0 0 22 22" fill="none" xmlns="http://www.w3.org/2000/svg">
<path d="M7.14896 17.3965C7.14896 17.4833 7.05158 17.5528 6.9288 17.5528C6.78908 17.5658 6.6917 17.4963 6.6917 17.3965C6.6917 17.3096 6.78908 17.2401 6.91186 17.2401C7.03888 17.2271 7.14896 17.2966 7.14896 17.3965ZM5.83223 17.2011C5.80259 17.2879 5.88727 17.3878 6.01428 17.4138C6.12436 17.4573 6.25138 17.4138 6.27678 17.327C6.30219 17.2401 6.22174 17.1403 6.09473 17.1012C5.98465 17.0708 5.86186 17.1142 5.83223 17.2011ZM7.7036 17.1272C7.58082 17.1576 7.49614 17.2401 7.50884 17.34C7.52154 17.4269 7.63162 17.4833 7.75864 17.4529C7.88142 17.4225 7.9661 17.34 7.9534 17.2532C7.94069 17.1707 7.82638 17.1142 7.7036 17.1272ZM10.4895 0.487305C4.61711 0.487305 0.124969 5.05982 0.124969 11.0827C0.124969 15.8984 3.08021 20.0193 7.30138 21.4696C7.84332 21.5695 8.03384 21.2264 8.03384 20.9442C8.03384 20.675 8.02114 19.1899 8.02114 18.278C8.02114 18.278 5.05743 18.9293 4.43505 16.9839C4.43505 16.9839 3.95239 15.7203 3.25803 15.3946C3.25803 15.3946 2.28848 14.7129 3.32578 14.7259C3.32578 14.7259 4.38001 14.8128 4.96005 15.8462C5.88727 17.5224 7.4411 17.0404 8.04654 16.7538C8.14392 16.059 8.41912 15.577 8.72396 15.2904C6.35723 15.0212 3.96932 14.6695 3.96932 10.4921C3.96932 9.29796 4.2911 8.69872 4.96852 7.93446C4.85844 7.65221 4.49856 6.48845 5.0786 4.98599C5.96348 4.70374 7.99997 6.15843 7.99997 6.15843C8.84674 5.91526 9.75703 5.78933 10.6588 5.78933C11.5607 5.78933 12.4709 5.91526 13.3177 6.15843C13.3177 6.15843 15.3542 4.6994 16.2391 4.98599C16.8191 6.4928 16.4592 7.65221 16.3492 7.93446C17.0266 8.70306 17.4415 9.30231 17.4415 10.4921C17.4415 14.6825 14.9478 15.0169 12.581 15.2904C12.9705 15.6335 13.3008 16.2848 13.3008 17.3053C13.3008 18.7687 13.2881 20.5794 13.2881 20.9355C13.2881 21.2178 13.4828 21.5608 14.0205 21.4609C18.2544 20.0193 21.125 15.8984 21.125 11.0827C21.125 5.05982 16.3619 0.487305 10.4895 0.487305ZM4.24029 15.4641C4.18525 15.5075 4.19795 15.6074 4.26993 15.6899C4.33767 15.7594 4.43505 15.7898 4.49009 15.7333C4.54513 15.6899 4.53243 15.59 4.46045 15.5075C4.39271 15.4381 4.29533 15.4077 4.24029 15.4641ZM3.78303 15.1124C3.7534 15.1688 3.79574 15.2383 3.88041 15.2817C3.94815 15.3252 4.03283 15.3121 4.06247 15.2513C4.09211 15.1949 4.04977 15.1254 3.96509 15.082C3.88041 15.0559 3.81267 15.069 3.78303 15.1124ZM5.15481 16.6583C5.08707 16.7147 5.11247 16.845 5.20985 16.9275C5.30723 17.0274 5.43001 17.0404 5.48505 16.9709C5.54009 16.9145 5.51469 16.7842 5.43001 16.7017C5.33686 16.6018 5.20985 16.5888 5.15481 16.6583ZM4.67215 16.0199C4.6044 16.0634 4.6044 16.1763 4.67215 16.2761C4.73989 16.376 4.8542 16.4194 4.90924 16.376C4.97699 16.3196 4.97699 16.2067 4.90924 16.1068C4.84997 16.0069 4.73989 15.9635 4.67215 16.0199Z" fill="white"/>
</svg>
