<svg width="22" height="22" viewBox="0 0 22 22" fill="none" xmlns="http://www.w3.org/2000/svg">
<path d="M10.6297 5.94692C7.64943 5.94692 5.24555 8.3508 5.24555 11.3311C5.24555 14.3113 7.64943 16.7152 10.6297 16.7152C13.6099 16.7152 16.0138 14.3113 16.0138 11.3311C16.0138 8.3508 13.6099 5.94692 10.6297 5.94692ZM10.6297 14.8314C8.70377 14.8314 7.12929 13.2617 7.12929 11.3311C7.12929 9.40045 8.69908 7.83066 10.6297 7.83066C12.5603 7.83066 14.1301 9.40045 14.1301 11.3311C14.1301 13.2617 12.5556 14.8314 10.6297 14.8314ZM17.4899 5.72668C17.4899 6.42488 16.9276 6.98251 16.2341 6.98251C15.5359 6.98251 14.9782 6.4202 14.9782 5.72668C14.9782 5.03316 15.5405 4.47085 16.2341 4.47085C16.9276 4.47085 17.4899 5.03316 17.4899 5.72668ZM21.0559 7.00125C20.9762 5.319 20.592 3.82888 19.3596 2.60116C18.1319 1.37345 16.6417 0.989205 14.9595 0.904858C13.2257 0.806454 8.02899 0.806454 6.2952 0.904858C4.61764 0.984519 3.12751 1.36877 1.89511 2.59648C0.662711 3.82419 0.28315 5.31432 0.198803 6.99657C0.100399 8.73036 0.100399 13.9271 0.198803 15.6609C0.278464 17.3431 0.662711 18.8332 1.89511 20.0609C3.12751 21.2887 4.61295 21.6729 6.2952 21.7572C8.02899 21.8557 13.2257 21.8557 14.9595 21.7572C16.6417 21.6776 18.1319 21.2933 19.3596 20.0609C20.5873 18.8332 20.9715 17.3431 21.0559 15.6609C21.1543 13.9271 21.1543 8.73505 21.0559 7.00125ZM18.816 17.5212C18.4505 18.4396 17.7429 19.1472 16.8198 19.5174C15.4374 20.0656 12.1573 19.9391 10.6297 19.9391C9.10207 19.9391 5.81723 20.0609 4.43957 19.5174C3.52113 19.1519 2.81355 18.4443 2.44336 17.5212C1.89511 16.1388 2.02163 12.8587 2.02163 11.3311C2.02163 9.80344 1.8998 6.5186 2.44336 5.14094C2.80887 4.2225 3.51644 3.51492 4.43957 3.14473C5.82192 2.59648 9.10207 2.723 10.6297 2.723C12.1573 2.723 15.4421 2.60116 16.8198 3.14473C17.7382 3.51024 18.4458 4.21781 18.816 5.14094C19.3643 6.52329 19.2377 9.80344 19.2377 11.3311C19.2377 12.8587 19.3643 16.1435 18.816 17.5212Z" fill="white"/>
</svg>
