<svg width="22" height="22" viewBox="0 0 22 22" fill="none" xmlns="http://www.w3.org/2000/svg">
<path d="M4.82562 21.8306H0.471875V7.81027H4.82562V21.8306ZM2.64641 5.89777C1.25422 5.89777 0.125 4.74465 0.125 3.35246C0.125 2.68374 0.390647 2.04241 0.863503 1.56956C1.33636 1.0967 1.97769 0.831055 2.64641 0.831055C3.31512 0.831055 3.95645 1.0967 4.42931 1.56956C4.90216 2.04241 5.16781 2.68374 5.16781 3.35246C5.16781 4.74465 4.03812 5.89777 2.64641 5.89777ZM21.1203 21.8306H16.7759V15.0056C16.7759 13.379 16.7431 11.2931 14.5123 11.2931C12.2487 11.2931 11.9019 13.0603 11.9019 14.8884V21.8306H7.55281V7.81027H11.7284V9.72277H11.7894C12.3706 8.62121 13.7905 7.45871 15.9087 7.45871C20.315 7.45871 21.125 10.3603 21.125 14.129V21.8306H21.1203Z" fill="white"/>
</svg>
