<svg width="105" height="105" viewBox="0 0 105 105" fill="none" xmlns="http://www.w3.org/2000/svg">
<path d="M49.7442 2.40651C50.7849 -0.0128725 54.2151 -0.0128739 55.2558 2.40651L57.1635 6.84132C58.0347 8.86657 60.7196 9.29182 62.174 7.6349L65.3588 4.00666C67.0962 2.02729 70.3585 3.08729 70.6007 5.70986L71.0446 10.5171C71.2473 12.7125 73.6694 13.9466 75.5646 12.8202L79.7147 10.3537C81.9787 9.00807 84.7539 11.0243 84.1737 13.5934L83.1104 18.3025C82.6248 20.453 84.547 22.3752 86.6975 21.8896L91.4066 20.8263C93.9757 20.2462 95.9919 23.0213 94.6463 25.2853L92.1798 29.4354C91.0534 31.3306 92.2875 33.7527 94.4829 33.9554L99.2901 34.3993C101.913 34.6415 102.973 37.9038 100.993 39.6412L97.3651 42.826C95.7082 44.2804 96.1334 46.9653 98.1587 47.8365L102.593 49.7442C105.013 50.7849 105.013 54.2151 102.593 55.2558L98.1587 57.1635C96.1334 58.0347 95.7082 60.7196 97.3651 62.174L100.993 65.3588C102.973 67.0962 101.913 70.3585 99.2901 70.6007L94.4829 71.0446C92.2875 71.2473 91.0534 73.6694 92.1798 75.5646L94.6463 79.7147C95.9919 81.9787 93.9757 84.7539 91.4066 84.1737L86.6975 83.1104C84.547 82.6248 82.6248 84.547 83.1104 86.6975L84.1737 91.4066C84.7539 93.9757 81.9787 95.9919 79.7147 94.6463L75.5646 92.1798C73.6694 91.0534 71.2473 92.2875 71.0446 94.4829L70.6007 99.2901C70.3585 101.913 67.0962 102.973 65.3588 100.993L62.174 97.3651C60.7196 95.7082 58.0347 96.1334 57.1635 98.1587L55.2558 102.593C54.2151 105.013 50.7849 105.013 49.7442 102.593L47.8365 98.1587C46.9653 96.1334 44.2804 95.7082 42.826 97.3651L39.6412 100.993C37.9038 102.973 34.6415 101.913 34.3993 99.2901L33.9554 94.4829C33.7527 92.2875 31.3306 91.0534 29.4354 92.1798L25.2853 94.6463C23.0213 95.9919 20.2462 93.9757 20.8263 91.4066L21.8896 86.6975C22.3752 84.547 20.453 82.6248 18.3025 83.1104L13.5934 84.1737C11.0243 84.7539 9.00807 81.9787 10.3537 79.7147L12.8202 75.5646C13.9466 73.6694 12.7125 71.2473 10.5171 71.0446L5.70986 70.6007C3.08729 70.3585 2.02729 67.0962 4.00666 65.3588L7.6349 62.174C9.29182 60.7196 8.86657 58.0347 6.84132 57.1635L2.40651 55.2558C-0.0128725 54.2151 -0.0128739 50.7849 2.40651 49.7442L6.84132 47.8365C8.86657 46.9653 9.29182 44.2804 7.6349 42.826L4.00666 39.6412C2.02729 37.9038 3.08729 34.6415 5.70986 34.3993L10.5171 33.9554C12.7125 33.7527 13.9466 31.3306 12.8202 29.4354L10.3537 25.2853C9.00807 23.0213 11.0243 20.2462 13.5934 20.8263L18.3025 21.8896C20.453 22.3752 22.3752 20.453 21.8896 18.3025L20.8263 13.5934C20.2462 11.0243 23.0213 9.00807 25.2853 10.3537L29.4354 12.8202C31.3306 13.9466 33.7527 12.7125 33.9554 10.5171L34.3993 5.70986C34.6415 3.08729 37.9038 2.02729 39.6412 4.00666L42.826 7.6349C44.2804 9.29182 46.9653 8.86657 47.8365 6.84132L49.7442 2.40651Z" fill="#0038FF"/>
</svg>
