<svg width="46" height="46" viewBox="0 0 46 46" fill="none" xmlns="http://www.w3.org/2000/svg">
<path d="M22.0098 1.0181C22.1716 -0.128954 23.8284 -0.128947 23.9902 1.01811L24.7079 6.10478C24.8456 7.08116 26.1639 7.28995 26.5966 6.40392L28.8511 1.78798C29.3594 0.747079 30.9351 1.25904 30.7345 2.39996L29.8452 7.45944C29.6745 8.43061 30.8637 9.03655 31.5491 8.32761L35.1195 4.63426C35.9247 3.8014 37.265 4.77518 36.7217 5.7983L34.3125 10.3353C33.85 11.2062 34.7938 12.15 35.6647 11.6875L40.2017 9.27828C41.2248 8.73499 42.1986 10.0753 41.3657 10.8805L37.6724 14.4509C36.9634 15.1363 37.5694 16.3255 38.5406 16.1548L43.6 15.2655C44.741 15.065 45.2529 16.6406 44.212 17.149L39.5961 19.4034C38.71 19.8361 38.9188 21.1544 39.8952 21.2921L44.9819 22.0098C46.129 22.1716 46.1289 23.8284 44.9819 23.9902L39.8952 24.7079C38.9188 24.8456 38.71 26.1639 39.5961 26.5966L44.212 28.8511C45.2529 29.3594 44.741 30.9351 43.6 30.7345L38.5406 29.8452C37.5694 29.6745 36.9635 30.8637 37.6724 31.5491L41.3657 35.1195C42.1986 35.9247 41.2248 37.265 40.2017 36.7217L35.6647 34.3125C34.7938 33.85 33.85 34.7938 34.3125 35.6647L36.7217 40.2017C37.265 41.2248 35.9247 42.1986 35.1195 41.3657L31.5491 37.6724C30.8637 36.9635 29.6745 37.5694 29.8452 38.5406L30.7345 43.6C30.935 44.741 29.3594 45.2529 28.8511 44.212L26.5966 39.5961C26.1639 38.71 24.8456 38.9188 24.7079 39.8952L23.9902 44.9819C23.8284 46.129 22.1716 46.1289 22.0098 44.9819L21.2921 39.8952C21.1544 38.9188 19.8361 38.7101 19.4034 39.5961L17.1489 44.212C16.6406 45.2529 15.065 44.741 15.2655 43.6L16.1548 38.5406C16.3255 37.5694 15.1363 36.9635 14.4509 37.6724L10.8804 41.3658C10.0753 42.1986 8.73499 41.2248 9.27829 40.2017L11.6875 35.6647C12.15 34.7938 11.2062 33.85 10.3353 34.3125L5.7983 36.7217C4.77519 37.265 3.80139 35.9247 4.63425 35.1196L8.32761 31.5491C9.03655 30.8637 8.43061 29.6745 7.45944 29.8452L2.39997 30.7345C1.25904 30.935 0.747085 29.3594 1.78799 28.8511L6.40392 26.5966C7.28995 26.1639 7.08116 24.8456 6.10477 24.7079L1.0181 23.9902C-0.128954 23.8284 -0.128947 22.1716 1.01811 22.0098L6.10478 21.2921C7.08116 21.1544 7.28995 19.8361 6.40392 19.4034L1.78799 17.1489C0.747081 16.6406 1.25904 15.065 2.39997 15.2655L7.45944 16.1548C8.43061 16.3255 9.03655 15.1363 8.32761 14.4509L4.63426 10.8805C3.8014 10.0753 4.77518 8.73499 5.7983 9.27828L10.3353 11.6875C11.2062 12.15 12.15 11.2062 11.6875 10.3353L9.27828 5.79829C8.73499 4.77517 10.0753 3.80139 10.8804 4.63425L14.4509 8.32761C15.1363 9.03655 16.3255 8.43062 16.1548 7.45945L15.2655 2.39997C15.065 1.25905 16.6406 0.747088 17.149 1.78799L19.4034 6.40392C19.8361 7.28995 21.1544 7.08116 21.2921 6.10477L22.0098 1.0181Z" fill="#0038FF"/>
</svg>
