<svg width="22" height="18" viewBox="0 0 22 18" fill="none" xmlns="http://www.w3.org/2000/svg">
<path d="M18.9663 5.05042C18.9797 5.23696 18.9797 5.42354 18.9797 5.61008C18.9797 11.2998 14.6491 17.8556 6.73413 17.8556C4.29567 17.8556 2.03046 17.1494 0.125 15.9235C0.471459 15.9635 0.804547 15.9768 1.16434 15.9768C3.17636 15.9768 5.02854 15.2973 6.5076 14.138C4.61547 14.098 3.02981 12.8588 2.48348 11.1532C2.75 11.1932 3.01648 11.2198 3.29633 11.2198C3.68274 11.2198 4.06919 11.1665 4.42893 11.0733C2.45686 10.6735 0.977756 8.94128 0.977756 6.84928V6.796C1.5507 7.1158 2.217 7.31567 2.92317 7.34229C1.7639 6.56943 1.00442 5.25029 1.00442 3.75789C1.00442 2.95842 1.21757 2.22555 1.59069 1.58595C3.70936 4.19762 6.89401 5.90317 10.465 6.08975C10.3984 5.76996 10.3584 5.43687 10.3584 5.10374C10.3584 2.73189 12.2772 0.799805 14.6624 0.799805C15.9016 0.799805 17.0209 1.31947 17.807 2.15894C18.7797 1.9724 19.7125 1.61261 20.5386 1.1196C20.2188 2.11899 19.5393 2.95846 18.6465 3.49141C19.5126 3.39819 20.3521 3.15829 21.1249 2.8252C20.5387 3.67795 19.8058 4.43744 18.9663 5.05042Z" fill="white"/>
</svg>
